<mxfile host="app.diagrams.net" modified="2024-06-17T11:58:53.090Z" agent="Mozilla/5.0 (Windows NT 10.0; Win64; x64) AppleWebKit/537.36 (KHTML, like Gecko) Chrome/125.0.0.0 Safari/537.36" etag="jMcHsAiCl7Q8T1VMvaYV" version="24.5.4" type="github">
  <diagram name="Page-1" id="L_krOU00MxawSAh70pyl">
    <mxGraphModel dx="1050" dy="557" grid="0" gridSize="10" guides="1" tooltips="1" connect="1" arrows="1" fold="1" page="1" pageScale="1" pageWidth="850" pageHeight="1100" math="0" shadow="0">
      <root>
        <mxCell id="0" />
        <mxCell id="1" parent="0" />
        <mxCell id="CXZL4-1KxXEvNb-ebIl2-1" value="" style="rounded=1;whiteSpace=wrap;html=1;strokeColor=#FF3333;" vertex="1" parent="1">
          <mxGeometry x="218" y="257" width="270" height="67" as="geometry" />
        </mxCell>
        <mxCell id="FzPyVAdeT0ASTcPWLuVl-2" value="" style="rounded=1;whiteSpace=wrap;html=1;strokeColor=#001DBC;fillColor=none;fontColor=#ffffff;" parent="1" vertex="1">
          <mxGeometry x="88" y="230" width="212" height="105" as="geometry" />
        </mxCell>
        <mxCell id="FzPyVAdeT0ASTcPWLuVl-3" value="Alice" style="sketch=0;outlineConnect=0;fontColor=#ffffff;strokeColor=#001DBC;fillColor=none;dashed=0;verticalLabelPosition=bottom;verticalAlign=top;align=center;html=1;fontSize=12;fontStyle=0;aspect=fixed;shape=mxgraph.aws4.resourceIcon;resIcon=mxgraph.aws4.user;" parent="1" vertex="1">
          <mxGeometry x="101" y="263" width="60" height="60" as="geometry" />
        </mxCell>
        <mxCell id="FzPyVAdeT0ASTcPWLuVl-6" value="Bob" style="sketch=0;outlineConnect=0;fontColor=#ffffff;strokeColor=#001DBC;fillColor=none;dashed=0;verticalLabelPosition=bottom;verticalAlign=top;align=center;html=1;fontSize=12;fontStyle=0;aspect=fixed;shape=mxgraph.aws4.resourceIcon;resIcon=mxgraph.aws4.user;" parent="1" vertex="1">
          <mxGeometry x="160" y="269" width="60" height="60" as="geometry" />
        </mxCell>
        <mxCell id="FzPyVAdeT0ASTcPWLuVl-8" value="IAM Group:&amp;nbsp; &lt;b&gt;Developer&lt;/b&gt;" style="text;html=1;align=center;verticalAlign=middle;whiteSpace=wrap;rounded=1;dashed=1;strokeWidth=1;strokeColor=#6c8ebf;fillColor=#dae8fc;" parent="1" vertex="1">
          <mxGeometry x="115" y="210" width="150" height="30" as="geometry" />
        </mxCell>
        <mxCell id="FzPyVAdeT0ASTcPWLuVl-9" value="" style="outlineConnect=0;dashed=0;verticalLabelPosition=bottom;verticalAlign=top;align=center;html=1;shape=mxgraph.aws3.policy;fillColor=#1ba1e2;strokeColor=#006EAF;fontColor=#ffffff;" parent="1" vertex="1">
          <mxGeometry x="251.5" y="100" width="55.5" height="90" as="geometry" />
        </mxCell>
        <mxCell id="FzPyVAdeT0ASTcPWLuVl-10" value="IAM Policy (Accesses) : &lt;b&gt;Developer&lt;/b&gt;" style="text;html=1;align=center;verticalAlign=middle;whiteSpace=wrap;rounded=0;" parent="1" vertex="1">
          <mxGeometry x="109" y="67" width="202.25" height="30" as="geometry" />
        </mxCell>
        <mxCell id="FzPyVAdeT0ASTcPWLuVl-11" value="" style="endArrow=classic;html=1;rounded=0;entryX=0.452;entryY=-0.053;entryDx=0;entryDy=0;flowAnimation=1;curved=1;entryPerimeter=0;fillColor=#0050ef;strokeColor=#001DBC;" parent="1" target="FzPyVAdeT0ASTcPWLuVl-8" edge="1">
          <mxGeometry width="50" height="50" relative="1" as="geometry">
            <mxPoint x="249" y="142" as="sourcePoint" />
            <mxPoint x="480" y="440" as="targetPoint" />
            <Array as="points">
              <mxPoint x="180" y="140" />
            </Array>
          </mxGeometry>
        </mxCell>
        <mxCell id="FzPyVAdeT0ASTcPWLuVl-13" value="" style="endArrow=classic;html=1;rounded=0;flowAnimation=1;fillColor=#0050ef;strokeColor=#001DBC;" parent="1" edge="1">
          <mxGeometry width="50" height="50" relative="1" as="geometry">
            <mxPoint x="175" y="240" as="sourcePoint" />
            <mxPoint x="140" y="270" as="targetPoint" />
          </mxGeometry>
        </mxCell>
        <mxCell id="FzPyVAdeT0ASTcPWLuVl-14" value="" style="endArrow=classic;html=1;rounded=0;flowAnimation=1;fillColor=#0050ef;strokeColor=#001DBC;" parent="1" edge="1">
          <mxGeometry width="50" height="50" relative="1" as="geometry">
            <mxPoint x="189.5" y="240" as="sourcePoint" />
            <mxPoint x="189.5" y="270" as="targetPoint" />
          </mxGeometry>
        </mxCell>
        <mxCell id="FzPyVAdeT0ASTcPWLuVl-15" value="" style="endArrow=classic;html=1;rounded=0;flowAnimation=1;fillColor=#6a00ff;strokeColor=#3700CC;" parent="1" edge="1">
          <mxGeometry width="50" height="50" relative="1" as="geometry">
            <mxPoint x="210" y="239" as="sourcePoint" />
            <mxPoint x="232.2682926829268" y="272" as="targetPoint" />
          </mxGeometry>
        </mxCell>
        <mxCell id="FzPyVAdeT0ASTcPWLuVl-16" value="" style="rounded=1;whiteSpace=wrap;html=1;fillColor=none;fontColor=#ffffff;strokeColor=#4C0099;" parent="1" vertex="1">
          <mxGeometry x="415" y="230" width="220" height="102" as="geometry" />
        </mxCell>
        <mxCell id="FzPyVAdeT0ASTcPWLuVl-17" value="David" style="sketch=0;outlineConnect=0;fontColor=#ffffff;strokeColor=#B20000;fillColor=none;dashed=0;verticalLabelPosition=bottom;verticalAlign=top;align=center;html=1;fontSize=12;fontStyle=0;aspect=fixed;shape=mxgraph.aws4.resourceIcon;resIcon=mxgraph.aws4.user;" parent="1" vertex="1">
          <mxGeometry x="431" y="264.5" width="60" height="60" as="geometry" />
        </mxCell>
        <mxCell id="FzPyVAdeT0ASTcPWLuVl-18" value="Edard" style="sketch=0;outlineConnect=0;fontColor=#ffffff;strokeColor=#B20000;fillColor=none;dashed=0;verticalLabelPosition=bottom;verticalAlign=top;align=center;html=1;fontSize=12;fontStyle=0;aspect=fixed;shape=mxgraph.aws4.resourceIcon;resIcon=mxgraph.aws4.user;" parent="1" vertex="1">
          <mxGeometry x="495" y="269" width="60" height="60" as="geometry" />
        </mxCell>
        <mxCell id="FzPyVAdeT0ASTcPWLuVl-19" value="Fred" style="sketch=0;outlineConnect=0;fontColor=#ffffff;strokeColor=#B20000;fillColor=none;dashed=0;verticalLabelPosition=bottom;verticalAlign=top;align=center;html=1;fontSize=12;fontStyle=0;aspect=fixed;shape=mxgraph.aws4.resourceIcon;resIcon=mxgraph.aws4.user;" parent="1" vertex="1">
          <mxGeometry x="553" y="263" width="60" height="60" as="geometry" />
        </mxCell>
        <mxCell id="FzPyVAdeT0ASTcPWLuVl-20" value="IAM Group:&amp;nbsp; &lt;b&gt;SRE&lt;/b&gt;" style="text;html=1;align=center;verticalAlign=middle;whiteSpace=wrap;rounded=1;dashed=1;strokeWidth=1;strokeColor=#005700;fillColor=#008a00;fontColor=#ffffff;" parent="1" vertex="1">
          <mxGeometry x="450" y="210" width="150" height="30" as="geometry" />
        </mxCell>
        <mxCell id="FzPyVAdeT0ASTcPWLuVl-21" value="" style="outlineConnect=0;dashed=0;verticalLabelPosition=bottom;verticalAlign=top;align=center;html=1;shape=mxgraph.aws3.policy;fillColor=#008a00;strokeColor=#005700;fontColor=#ffffff;" parent="1" vertex="1">
          <mxGeometry x="595" y="100" width="55.5" height="90" as="geometry" />
        </mxCell>
        <mxCell id="FzPyVAdeT0ASTcPWLuVl-22" value="IAM Policy (Accesses) : &lt;b&gt;SRE&lt;/b&gt;" style="text;html=1;align=center;verticalAlign=middle;whiteSpace=wrap;rounded=0;" parent="1" vertex="1">
          <mxGeometry x="592" y="70" width="173.25" height="30" as="geometry" />
        </mxCell>
        <mxCell id="FzPyVAdeT0ASTcPWLuVl-23" value="" style="endArrow=classic;html=1;rounded=0;entryX=0.452;entryY=-0.053;entryDx=0;entryDy=0;flowAnimation=1;curved=1;entryPerimeter=0;fillColor=#008a00;strokeColor=#005700;" parent="1" source="FzPyVAdeT0ASTcPWLuVl-21" target="FzPyVAdeT0ASTcPWLuVl-20" edge="1">
          <mxGeometry width="50" height="50" relative="1" as="geometry">
            <mxPoint x="765" y="490" as="sourcePoint" />
            <mxPoint x="815" y="440" as="targetPoint" />
            <Array as="points">
              <mxPoint x="515" y="140" />
            </Array>
          </mxGeometry>
        </mxCell>
        <mxCell id="FzPyVAdeT0ASTcPWLuVl-24" value="" style="endArrow=classic;html=1;rounded=0;flowAnimation=1;fillColor=#008a00;strokeColor=#005700;" parent="1" edge="1">
          <mxGeometry width="50" height="50" relative="1" as="geometry">
            <mxPoint x="510" y="240" as="sourcePoint" />
            <mxPoint x="475" y="270" as="targetPoint" />
          </mxGeometry>
        </mxCell>
        <mxCell id="FzPyVAdeT0ASTcPWLuVl-25" value="" style="endArrow=classic;html=1;rounded=0;flowAnimation=1;fillColor=#008a00;strokeColor=#005700;" parent="1" edge="1">
          <mxGeometry width="50" height="50" relative="1" as="geometry">
            <mxPoint x="524.5" y="240" as="sourcePoint" />
            <mxPoint x="524.5" y="270" as="targetPoint" />
          </mxGeometry>
        </mxCell>
        <mxCell id="FzPyVAdeT0ASTcPWLuVl-26" value="" style="endArrow=classic;html=1;rounded=0;flowAnimation=1;fillColor=#008a00;strokeColor=#005700;" parent="1" edge="1">
          <mxGeometry width="50" height="50" relative="1" as="geometry">
            <mxPoint x="545" y="239" as="sourcePoint" />
            <mxPoint x="575" y="269" as="targetPoint" />
          </mxGeometry>
        </mxCell>
        <mxCell id="CXZL4-1KxXEvNb-ebIl2-2" value="IAM Group: &lt;b&gt;Audit&lt;/b&gt;" style="text;html=1;align=center;verticalAlign=middle;whiteSpace=wrap;rounded=1;dashed=1;strokeWidth=1;strokeColor=#b85450;fillColor=#f8cecc;" vertex="1" parent="1">
          <mxGeometry x="307" y="243" width="100.5" height="30" as="geometry" />
        </mxCell>
        <mxCell id="CXZL4-1KxXEvNb-ebIl2-6" value="Bob" style="sketch=0;outlineConnect=0;fontColor=#ffffff;strokeColor=#001DBC;fillColor=none;dashed=0;verticalLabelPosition=bottom;verticalAlign=top;align=center;html=1;fontSize=12;fontStyle=0;aspect=fixed;shape=mxgraph.aws4.resourceIcon;resIcon=mxgraph.aws4.user;" vertex="1" parent="1">
          <mxGeometry x="218" y="260" width="60" height="60" as="geometry" />
        </mxCell>
        <mxCell id="CXZL4-1KxXEvNb-ebIl2-7" value="" style="outlineConnect=0;dashed=0;verticalLabelPosition=bottom;verticalAlign=top;align=center;html=1;shape=mxgraph.aws3.policy;fillColor=#e51400;strokeColor=#B20000;fontColor=#ffffff;" vertex="1" parent="1">
          <mxGeometry x="419" y="100" width="55.5" height="90" as="geometry" />
        </mxCell>
        <mxCell id="CXZL4-1KxXEvNb-ebIl2-8" value="IAM Policy (Accesses) : &lt;b&gt;Audit&lt;/b&gt;" style="text;html=1;align=center;verticalAlign=middle;whiteSpace=wrap;rounded=0;" vertex="1" parent="1">
          <mxGeometry x="348" y="70" width="202.25" height="30" as="geometry" />
        </mxCell>
        <mxCell id="CXZL4-1KxXEvNb-ebIl2-10" value="" style="endArrow=classic;html=1;rounded=0;flowAnimation=1;curved=1;fillColor=#0050ef;strokeColor=#FF3333;" edge="1" parent="1">
          <mxGeometry width="50" height="50" relative="1" as="geometry">
            <mxPoint x="420" y="143" as="sourcePoint" />
            <mxPoint x="356" y="238" as="targetPoint" />
            <Array as="points">
              <mxPoint x="388" y="146" />
              <mxPoint x="352" y="170" />
            </Array>
          </mxGeometry>
        </mxCell>
        <mxCell id="CXZL4-1KxXEvNb-ebIl2-11" value="" style="endArrow=classic;html=1;rounded=0;flowAnimation=1;fillColor=#dae8fc;strokeColor=#FF3333;" edge="1" parent="1">
          <mxGeometry width="50" height="50" relative="1" as="geometry">
            <mxPoint x="311.25" y="269" as="sourcePoint" />
            <mxPoint x="273.25" y="294" as="targetPoint" />
          </mxGeometry>
        </mxCell>
        <mxCell id="CXZL4-1KxXEvNb-ebIl2-12" value="" style="endArrow=classic;html=1;rounded=0;flowAnimation=1;strokeColor=#FF3333;" edge="1" parent="1">
          <mxGeometry width="50" height="50" relative="1" as="geometry">
            <mxPoint x="404" y="269" as="sourcePoint" />
            <mxPoint x="440" y="293" as="targetPoint" />
          </mxGeometry>
        </mxCell>
      </root>
    </mxGraphModel>
  </diagram>
</mxfile>
